<?xml version="1.0" encoding="utf-8"?>
<!-- Generator: Adobe Illustrator 18.1.1, SVG Export Plug-In . SVG Version: 6.00 Build 0)  -->
<svg version="1.1" id="Слой_1" xmlns="http://www.w3.org/2000/svg" xmlns:xlink="http://www.w3.org/1999/xlink" x="0px" y="0px"
	 viewBox="30.6 44.1 550.7938 550.8" enable-background="new 30.6 44.1 550.7938 550.8" xml:space="preserve">
<path fill="#b2b2b2" d="M581.3816,234.8176c0.0001-0.7161-0.1102-1.426-0.2938-2.1298l-0.1713-0.5202l-0.6548-1.5055l-0.3183-0.563l-0.2019-0.3488
	l-1.0588-1.2057l-0.104-0.1163c-0.5447-0.5079-1.1506-0.9119-1.7809-1.2607l-0.1897-0.1346l-81.5551-42.3198v-65.9369
	c0-2.3378-0.9486-4.6329-2.6011-6.2853c-1.6523-1.6524-3.9412-2.601-6.2791-2.601H370.4865V93.8923
	c-0.0062-13.4763-4.9817-25.8142-13.1886-34.8718c-8.1763-9.0515-19.8227-14.9267-32.7053-14.9206
	c-12.9866-0.0122-24.7125,5.8385-32.9378,14.9022c-8.2559,9.0637-13.2376,21.4139-13.2376,34.8901V109.89H125.8578
	c-4.9082,0-8.8862,3.978-8.8862,8.8862v65.8818L35.496,225.9007l-0.1897,0.1346c-1.1506,0.6182-2.1971,1.475-3.011,2.601
	l-0.202,0.355l-0.2938,0.514c-0.2876,0.508-0.5202,1.0343-0.6915,1.579l-0.1591,0.4774c-0.1898,0.716-0.2999,1.4382-0.306,2.1664
	l-0.0122,0.098L30.6,586.0137v0.0184l0.0062,0.0367c0.0061,1.1567,0.2325,2.2705,0.6548,3.317
	c0.4406,1.0771,1.0955,2.0624,1.94,2.9131l0.0184,0.0122l0.0061,0.0061l0.0184,0.0123c0.8507,0.8384,1.836,1.481,2.907,1.9156
	l0.0857,0.0244c1.022,0.404,2.1176,0.6304,3.2498,0.6304h533.0275c1.1383,0,2.2399-0.2264,3.2681-0.6303l0.0734-0.0245
	c1.0771-0.4345,2.0685-1.0833,2.9193-1.9278l0.0061-0.0061l0.0122-0.0062c0.8507-0.8506,1.4995-1.8421,1.9401-2.9192l0.0061-0.0123
	c0.4223-1.0403,0.6487-2.1603,0.6548-3.3109V234.9216L581.3816,234.8176z M495.0529,204.7377l60.5023,31.3895l-60.5023,43.2806
	V204.7377z M296.1774,93.8923h0.0062c-0.0062-9.0699,3.366-17.1727,8.6047-22.9255c5.2755-5.7589,12.191-9.0882,19.7982-9.1005
	c7.4297,0.0062,14.2902,3.3171,19.5411,9.0821c5.2204,5.7589,8.5925,13.874,8.5864,22.9439V109.89h-56.5366V93.8923z
	 M134.744,127.6564h217.9822V243.814c0.0184,14.5289-5.3978,28.0602-13.7822,37.1116
	c-8.8801,9.5656-20.4347,15.2266-32.9868,15.2327c-12.5888-0.0062-24.1128-5.6243-32.7358-15.0797
	c-8.5925-9.4493-14.0454-22.6379-14.0393-37.2647v-24.2903c0-4.9082-3.978-8.8862-8.8862-8.8862
	c-4.9082,0-8.8862,3.978-8.8862,8.8862v24.2903c0.0061,19.0516,7.0747,36.4691,18.6599,49.217
	c11.5546,12.7419,27.8582,20.8998,45.8817,20.8937c18.0601,0.0061,34.3332-8.2498,46.0407-20.9366
	c11.6586-12.6684,18.4824-30.3001,18.5008-49.168V127.6625h106.8001v164.4627L306,414.6354L134.744,291.4092V127.6564z
	 M116.9716,204.5664v74.052L56.5549,235.148L116.9716,204.5664z M48.3909,251.1641l71.5734,51.4998l1.4749,1.0649l108.4158,78.0116
	L48.3725,564.4652L48.3909,251.1641z M60.8327,577.1275l183.6246-184.8791l56.3346,40.5328
	c3.0906,2.2216,7.2584,2.2277,10.355,0.0123l56.2245-40.2145l183.7529,184.5486H60.8327z M563.6336,564.502l-181.611-182.3943
	l181.611-129.9092V564.502z"/>
</svg>
