<?xml version="1.0" encoding="utf-8"?>
<!-- Generator: Adobe Illustrator 21.0.2, SVG Export Plug-In . SVG Version: 6.00 Build 0)  -->
<svg version="1.1" id="Layer_1" xmlns="http://www.w3.org/2000/svg" xmlns:xlink="http://www.w3.org/1999/xlink" x="0px" y="0px"
	 viewBox="0 0 312.5 413.7" style="enable-background:new 0 0 312.5 413.7;" xml:space="preserve">
<style type="text/css">
	.st0{fill:#FF9A09;}
</style>
<path class="st0" d="M211.4,110.3h101.1L202.2,0v101.1C202.2,106.2,206.3,110.3,211.4,110.3z M183.8,114.9V0h-167
	C7.5,0,0,7.5,0,16.9v379.9c0,9.3,7.6,16.9,16.9,16.9h278.7c9.3,0,16.9-7.6,16.9-16.9v-268H197.6C190,128.7,183.8,122.5,183.8,114.9z
	 M213.779,206.504c0.068,0.849,0.178,1.535,0.178,2.206c0,30.238,0.096,60.476,0,90.7c0,13.468-11.29,23.826-24.936,23.415
	c-13.147-0.552-23.357-11.657-22.805-24.804c0.552-13.147,11.657-23.357,24.804-22.805c2.669,0.112,5.3,0.672,7.784,1.657
	c1.055,0.452,2.124,0.877,3.603,1.521v-40.445l-18.62,5.343c-12.906,3.699-25.799,7.453-38.746,10.961
	c-2.48,0.685-3.329,1.713-3.316,4.357c0.119,20.232,0.119,40.468,0,60.709c0.153,13.173-10.402,23.975-23.575,24.128
	c-9.782,0.113-18.642-5.758-22.35-14.811c-3.691-8.83-1.64-19.016,5.179-25.73c7.22-7.015,15.77-8.865,25.347-5.549
	c1.206,0.425,2.37,0.986,4.042,1.699v-65.531c0-1.85,0-3.22,2.398-3.905c26.402-7.481,52.748-15.112,79.15-22.689
	C212.464,206.779,213.039,206.669,213.779,206.504z"/>
</svg>
