<?xml version="1.0" encoding="utf-8"?>
<!-- Generator: Adobe Illustrator 21.0.2, SVG Export Plug-In . SVG Version: 6.00 Build 0)  -->
<svg version="1.1" id="Layer_1" xmlns="http://www.w3.org/2000/svg" xmlns:xlink="http://www.w3.org/1999/xlink" x="0px" y="0px"
	 viewBox="0 0 57.2 57.2" style="enable-background:new 0 0 57.2 57.2;" xml:space="preserve">
<path fill="#ffffff" d="M34.3,28.6L56,6.9c1.6-1.6,1.6-4.1,0-5.7c-1.6-1.6-4.1-1.6-5.7,0L28.6,22.9L6.9,1.3c-1.6-1.6-4.1-1.6-5.7,0
	c-1.6,1.6-1.6,4.1,0,5.7l21.7,21.6L1.3,50.3c-1.6,1.5-1.6,4.1,0,5.6c0.8,0.8,1.8,1.2,2.8,1.2s2-0.4,2.8-1.2l21.7-21.6L50.3,56
	c0.8,0.8,1.8,1.2,2.8,1.2s2-0.4,2.8-1.2c1.6-1.6,1.6-4.1,0-5.7L34.3,28.6z"/>
</svg>
