<?xml version="1.0" encoding="utf-8"?>
<!-- Generator: Adobe Illustrator 21.0.2, SVG Export Plug-In . SVG Version: 6.00 Build 0)  -->
<svg version="1.1" id="Layer_1" xmlns="http://www.w3.org/2000/svg" xmlns:xlink="http://www.w3.org/1999/xlink" x="0px" y="0px"
	 viewBox="0 0 94.7 96" style="enable-background:new 0 0 94.7 96;" xml:space="preserve">
<path fill="#b2b2b2" d="M67.8,24c4.2,0,7.6-3.4,7.6-7.6V7.6C75.4,3.4,72,0,67.8,0s-7.6,3.4-7.6,7.6v8.8C60.3,20.6,63.6,24,67.8,24z M26.8,24
	c4.2,0,7.6-3.4,7.6-7.6V7.6C34.4,3.4,31,0,26.8,0s-7.6,3.4-7.6,7.6v8.8C19.3,20.6,22.6,24,26.8,24z M0,86c0,5.5,4.5,10,10,10h74.7
	c5.5,0,10-4.5,10-10V40H0V86z M69.7,50.9h12.8v12.8H69.7V50.9z M69.7,69.1h12.8v12.8H69.7V69.1z M50.5,50.9h12.8v12.8H50.5V50.9z
	 M50.5,69.1h12.8v12.8H50.5V69.1z M31.3,50.9h12.8v12.8H31.3V50.9z M31.3,69.1h12.8v12.8H31.3V69.1z M12.2,50.9h12.8v12.8H12.2V50.9
	z M12.2,69.1h12.8v12.8H12.2V69.1z M84.7,12.7h-5.3v3.7c0,6.4-5.2,11.6-11.6,11.6s-11.6-5.2-11.6-11.6v-3.7H38.4v3.7
	c0,6.4-5.2,11.6-11.6,11.6s-11.6-5.2-11.6-11.6v-3.7H10c-5.5,0-10,4.5-10,10V36h94.7V22.7C94.7,17.1,90.2,12.7,84.7,12.7z"/>
</svg>
