<?xml version="1.0" encoding="utf-8"?>
<!-- Generator: Adobe Illustrator 21.0.0, SVG Export Plug-In . SVG Version: 6.00 Build 0)  -->
<svg version="1.1" id="Layer_1" xmlns="http://www.w3.org/2000/svg" xmlns:xlink="http://www.w3.org/1999/xlink" x="0px" y="0px"
	 viewBox="0 0 122.8 118.7" style="enable-background:new 0 0 122.8 118.7;" xml:space="preserve">
<style type="text/css">
	.st0{fill:#E0E004;}
</style>
<path class="st0" d="M122.8,76.3L87.4,56.5l23.3-33L73,38.6L61.4,0L49.8,38.6L12.1,23.5l23.3,33L0,76.3l40.6,2.6l-6.5,39.8
	l27.3-29.8l27.3,29.8l-6.5-39.8L122.8,76.3z M61.4,70.8L50.9,82.2l2.5-15.3l-15.6-1l13.6-7.6l-8.9-12.7L57,51.4l4.5-14.8l4.4,14.8
	l14.4-5.8l-8.9,12.7L85,65.9l-15.6,1l2.5,15.3L61.4,70.8z"/>
</svg>
