<?xml version="1.0" encoding="utf-8"?>
<!-- Generator: Adobe Illustrator 21.0.0, SVG Export Plug-In . SVG Version: 6.00 Build 0)  -->
<svg version="1.1" id="Layer_1" xmlns="http://www.w3.org/2000/svg" xmlns:xlink="http://www.w3.org/1999/xlink" x="0px" y="0px"
	 viewBox="0 0 51 94.9" style="enable-background:new 0 0 51 94.9;" xml:space="preserve">
<style type="text/css">
	.st0{fill:#006BB8;}
</style>
<path class="st0" d="M25.7,29c8,0,14.5-6.5,14.5-14.5S33.8,0,25.7,0S11.2,6.5,11.2,14.5S17.7,29,25.7,29z M44.9,35.5H6
	c-4.3,0-7.2,4.4-5.6,8.3l19.5,47.4c2,5,9.1,5,11.2,0l19.5-47.4C52.1,39.9,49.2,35.5,44.9,35.5z M26.133,58.051l-1.58,1.702
	l-1.783-1.54l-5.673-4.862l2.146-2.504l2.595,2.225l2.363,2.041l2.095-2.256l7.071-7.66l2.49,2.32L26.133,58.051z"/>
</svg>
