<?xml version="1.0" encoding="utf-8"?>
<!-- Generator: Adobe Illustrator 18.1.1, SVG Export Plug-In . SVG Version: 6.00 Build 0)  -->
<svg version="1.1" id="Слой_1" xmlns="http://www.w3.org/2000/svg" xmlns:xlink="http://www.w3.org/1999/xlink" x="0px" y="0px"
	 viewBox="0 34.6 611.7 578.2" enable-background="new 0 34.6 611.7 578.2" xml:space="preserve">
<title>photo caption</title>
<path fill="#fff" d="M366.5,568.6H22.1C9.9,568.6,0,578.5,0,590.7s9.9,22.1,22.1,22.1h344.4c12.2,0,22.1-9.9,22.1-22.1S378.7,568.6,366.5,568.6z
	 M422.9,237.9c31.2,0,56.5-25.3,56.5-56.5c0-31.2-25.3-56.5-56.5-56.5s-56.5,25.3-56.5,56.5C366.5,212.7,391.8,237.9,422.9,237.9z
	 M455.2,355.6c-5.2-7.1-15.3-8.7-22.4-3.4c-0.6,0.4-1.1,0.9-1.6,1.3l-53.4,50.7L254.6,235.8c-5.2-7.2-15.3-8.7-22.4-3.5
	c-1.6,1.2-3,2.6-4,4.3L104.5,426.3c-4.8,7.4-2.7,17.4,4.7,22.2c2.6,1.7,5.7,2.6,8.8,2.6h376.3c8.9,0.1,16.1-7.1,16.2-15.9
	c0-3.5-1.1-6.9-3.2-9.7L455.2,355.6z M554.9,34.6H56.8C25.4,34.6,0,60,0,91.4V480c0,0.1,0,0.2,0,0.3c0.2,31.4,25.8,56.6,57.1,56.5
	h498.1c31.2-0.2,56.5-25.6,56.5-56.8V91.4C611.7,60,586.2,34.6,554.9,34.6z M567.4,480c0,6.9-5.6,12.5-12.5,12.5H56.8
	c-6.9,0-12.5-5.6-12.5-12.5V91.4c0-6.9,5.6-12.5,12.5-12.5h498.4c6.8,0.2,12.2,5.7,12.2,12.5V480z"/>
</svg>
