<?xml version="1.0" encoding="utf-8"?>
<!-- Generator: Adobe Illustrator 18.1.1, SVG Export Plug-In . SVG Version: 6.00 Build 0)  -->
<svg version="1.1" id="Слой_1" xmlns="http://www.w3.org/2000/svg" xmlns:xlink="http://www.w3.org/1999/xlink" x="0px" y="0px"
	 viewBox="0 34.6 611.7 578.2" enable-background="new 0 34.6 611.7 578.2" xml:space="preserve">
<title>video caption</title>
<path fill="#fff" d="M366.5,568.6H22.1C9.9,568.6,0,578.5,0,590.7s9.9,22.1,22.1,22.1h344.4c12.2,0,22.1-9.9,22.1-22.1S378.7,568.6,366.5,568.6z
	 M387.4,283.9l-113.1-83.2c-2.2-1.6-4.9-2.5-7.7-2.6c-7.8-0.2-14.2,5.9-14.5,13.6V379c0,3,1,6,2.8,8.4c4.6,6.2,13.5,7.5,19.7,2.9
	L387.4,306c0.9-0.7,1.7-1.5,2.4-2.4C394.6,297.5,393.5,288.7,387.4,283.9z M554.9,34.6H56.8C25.4,34.6,0,60,0,91.4V480
	c0,0.1,0,0.2,0,0.3c0.2,31.4,25.8,56.6,57.1,56.5h498.1c31.2-0.2,56.5-25.6,56.5-56.8V91.4C611.7,60,586.2,34.6,554.9,34.6z
	 M567.4,480c0,6.9-5.6,12.5-12.5,12.5H56.8c-6.9,0-12.5-5.6-12.5-12.5V91.4c0-6.9,5.6-12.5,12.5-12.5h498.4
	c6.8,0.2,12.2,5.7,12.2,12.5V480z"/>
</svg>
