<?xml version="1.0" encoding="utf-8"?>
<!-- Generator: Adobe Illustrator 21.0.0, SVG Export Plug-In . SVG Version: 6.00 Build 0)  -->
<svg version="1.1" id="Layer_1" xmlns="http://www.w3.org/2000/svg" xmlns:xlink="http://www.w3.org/1999/xlink" x="0px" y="0px"
	 viewBox="0 0 47.9 66.4" style="enable-background:new 0 0 47.9 66.4;" xml:space="preserve">
<style type="text/css">
	.st0{fill:#F03A03;}
</style>
<path class="st0" d="M45.9,39.3C38.4,23.2,43.2,18,43.3,18c0.1-0.1,0.1-0.2,0-0.3c-0.1-0.1-0.2-0.1-0.3-0.1s-10.5,4.4-9.2,14
	C31,29,17.7,15.9,25.8,0.5c0.1-0.1,0-0.2,0-0.3C25.7,0,25.6,0,25.5,0c-0.2,0.1-4.3,1.8-7.6,6.3c-3,4.1-5.9,11.4-2.1,22.7
	c1.4,5.3-1.2,9.6-2.6,11.4c0.3-1.3,0.8-3.4,0.7-5.9C13.8,30.9,12.5,26,7,22.8c-0.1-0.1-0.2,0-0.3,0c-0.1,0.1-0.1,0.2-0.1,0.3
	c0,0.1,2.1,9.5-1.5,13.9C2,40.8-1.1,47.3,0.6,53.4c1.4,5.1,5.8,9,12.9,11.5c1.9,0.6,3.6,1,5.6,1.4c0.1,0,0.2-0.1,0.3-0.2
	c0-0.1,0-0.3-0.1-0.3c-3.7-1.6-7.5-4.9-4.7-11.7c2.7-5.8,2.2-8.8,1.7-10.1c1.4,0.8,4.1,2.8,3.5,6.4c0,0.1,0,0.2,0.1,0.3s0.2,0,0.3,0
	c0.1-0.1,8.4-6.9,4.6-15.3c1.9,1.1,6.8,4.8,3.9,13.5c-1,3.7,1.7,6.4,1.8,6.5c0.1,0.1,0.2,0.1,0.3,0c0.1-0.1,0.1-0.2,0.1-0.3
	c-0.1-0.2-2.1-5.5,2.2-8.5c-0.2,1.4-0.6,4.7,0.9,6.6c1.4,1.7,2.7,4.4,2.3,7c-0.3,1.9-1.4,3.4-3.3,4.7c-0.1,0.1-0.1,0.2-0.1,0.3
	s0.2,0.2,0.3,0.1c4.7-1.6,10.8-4.6,13.5-10.5C48.6,50.5,48.3,45.3,45.9,39.3z"/>
</svg>
