<?xml version="1.0" encoding="utf-8"?>
<!-- Generator: Adobe Illustrator 21.0.0, SVG Export Plug-In . SVG Version: 6.00 Build 0)  -->
<svg version="1.1" id="Layer_1" xmlns="http://www.w3.org/2000/svg" xmlns:xlink="http://www.w3.org/1999/xlink" x="0px" y="0px"
	 viewBox="0 0 51.046 94.95" style="enable-background:new 0 0 51.046 94.95;" xml:space="preserve">
<path d="M25.746,29c8,0,14.5-6.5,14.5-14.5S33.846,0,25.746,0c-8.1,0-14.5,6.5-14.5,14.5S17.746,29,25.746,29z M44.946,35.5h-38.9
	c-4.3,0-7.2,4.4-5.6,8.3l19.5,47.4c2,5,9.1,5,11.2,0l19.5-47.4C52.146,39.9,49.246,35.5,44.946,35.5z M33.286,57.788l-2.45,2.451
	l-5.313-5.313l-5.313,5.313l-2.451-2.451l5.313-5.313l-5.313-5.313l2.451-2.451l5.313,5.313l5.313-5.313l2.45,2.451l-5.313,5.313
	L33.286,57.788z"/>
</svg>
