<?xml version="1.0" encoding="utf-8"?>
<!-- Generator: Adobe Illustrator 21.0.0, SVG Export Plug-In . SVG Version: 6.00 Build 0)  -->
<svg version="1.1" id="Layer_1" xmlns="http://www.w3.org/2000/svg" xmlns:xlink="http://www.w3.org/1999/xlink" x="0px" y="0px"
	 viewBox="0 0 181 181" style="enable-background:new 0 0 181 181;" xml:space="preserve">
<style type="text/css">
	.st0{fill:#F8A000;}
</style>
<path class="st0" d="M181,90.6l-39.9-13.1l28.1-20.3h-45.4V11.8l-20.3,28.1L90.6,0l-13,39.9L57.2,11.8v45.4H11.8l28.1,20.3L0,90.6
	l39.9,12.8l-28.1,20.3h45.4v45.4L77.5,141l13.1,40l12.8-39.9l20.3,28.1v-45.4h45.4L141,103.5L181,90.6z M90.6,113
	C78,113,68,103,68,90.7C68,78.1,78.1,68,90.6,68c12.3,0,22.3,10,22.3,22.6C113,102.9,102.9,113,90.6,113z"/>
</svg>
