<?xml version="1.0" encoding="utf-8"?>
<!-- Generator: Adobe Illustrator 21.0.2, SVG Export Plug-In . SVG Version: 6.00 Build 0)  -->
<svg version="1.1" id="Layer_1" xmlns:sketch="http://www.bohemiancoding.com/sketch/ns"
	 xmlns="http://www.w3.org/2000/svg" xmlns:xlink="http://www.w3.org/1999/xlink" x="0px" y="0px" viewBox="0 0 294.7 390"
	 style="enable-background:new 0 0 294.7 390;" xml:space="preserve">
<title>kden-document-excel</title>
<desc>Created with Sketch.</desc>
<path fill="#02723b" d="M173.3,108.4V0H15.9C7.1,0,0,7.1,0,15.9v358.2c0,8.8,7.1,15.9,15.9,15.9h262.8c8.8,0,15.9-7.2,15.9-15.9V121.3H186.3
	C179.1,121.3,173.3,115.5,173.3,108.4z M208,303.3h-33.4l-27.2-38.1l-14.2,19.9h14.4l11.8,18.2H86.7l43.9-61.5l-36.5-51.1h33.4
	l19.8,27.7l19.8-27.7h33.4L164,241.8L208,303.3z M199.4,104h95.3L190.7,0v95.3C190.7,100.1,194.6,104,199.4,104z"/>
</svg>
