<?xml version="1.0" encoding="utf-8"?>
<!-- Generator: Adobe Illustrator 21.0.2, SVG Export Plug-In . SVG Version: 6.00 Build 0)  -->
<svg version="1.1" id="Layer_1" xmlns="http://www.w3.org/2000/svg" xmlns:xlink="http://www.w3.org/1999/xlink" x="0px" y="0px"
	 viewBox="0 0 312.5 413.7" style="enable-background:new 0 0 312.5 413.7;" xml:space="preserve">
<style type="text/css">
	.st0{fill:#259DEB;}
</style>
<path class="st0" d="M211.4,110.3h101.1L202.2,0v101.1C202.2,106.2,206.3,110.3,211.4,110.3z M183.8,114.9V0h-167
	C7.5,0,0,7.5,0,16.9v379.9c0,9.3,7.6,16.9,16.9,16.9h278.7c9.3,0,16.9-7.6,16.9-16.9v-268H197.6C190,128.7,183.8,122.5,183.8,114.9z
	 M114.599,223.164c3.522-0.578,4.908-3.612,4.908-7.191v-11.676c0-1.785,2.682-3.429,4.241-4.307
	c1.55-0.869,4.917-0.836,6.439,0.094l57.036,34.633c1.465,0.892,2.278,2.489,2.278,4.213c0,1.719-1.014,3.325-2.484,4.218
	l-57.2,34.633c-1.522,0.93-4.532,0.967-6.082,0.094c-1.55-0.878-4.227-2.522-4.227-4.302v-10.751c0-2.151,0.16-4.171-1.578-5.443
	c-1.738-1.268-2.78-1.634-4.833-0.977c-10.511,3.353-19.115,11.056-23.582,21.013c-0.348,0.756-1.174,1.245-2.005,1.249
	c-0.836,0.005-1.733-0.479-2.085-1.235c-2.245-4.889-3.828-10.328-3.828-16.067C81.596,242.138,96.014,226.184,114.599,223.164z
	 M232.226,274.146c0,41.504-33.642,75.146-75.146,75.146c-37.07,0-67.796-26.869-73.953-62.179c1.376,0.549,2.827,0.944,4.368,0.944
	c1.846-0.009,3.565-0.54,5.143-1.32c1.775,9.135,5.406,17.612,10.563,24.981h21.374c-2.212-7.655-3.743-16.166-4.49-25.211
	c2.414,1.104,4.861,1.4,6.58,1.4c0.836,0,1.851-0.094,2.926-0.272c0.859,8.895,2.536,17.03,4.795,24.089h45.379
	c2.987-9.323,4.964-20.529,5.378-32.876h-38.935l15.518-9.393h23.417c-0.155-4.687-0.601-9.144-1.179-13.465l7.919-4.795
	c0.296-0.178,0.517-0.441,0.798-0.639c0.991,6.007,1.653,12.319,1.855,18.894h28.062c-0.869-12.169-5.021-23.422-11.634-32.876
	h-12.366c-0.62-3.837-2.686-7.19-5.885-9.393h10.295c-6.965-6.815-15.443-12.061-24.869-15.264c2.109,2.865,4.044,6.185,5.814,9.83
	l-36.366-22.079c3.119-0.395,6.265-0.667,9.492-0.667C198.584,199,232.226,232.642,232.226,274.146z M189.585,311.719h21.379
	c6.613-9.454,10.765-20.707,11.634-32.876h-28.062C194.169,290.777,192.422,301.936,189.585,311.719z M111.152,321.112
	c6.965,6.815,15.442,12.061,24.869,15.264c-3.119-4.227-5.89-9.398-8.243-15.264H111.152z M157.08,339.899
	c6.655,0,13.705-7.04,19.092-18.786h-38.179C143.375,332.858,150.425,339.899,157.08,339.899z M178.144,336.376
	c9.421-3.203,17.899-8.449,24.869-15.264h-16.626C184.034,326.978,181.263,332.149,178.144,336.376z"/>
</svg>
