<?xml version="1.0" encoding="utf-8"?>
<!-- Generator: Adobe Illustrator 21.0.2, SVG Export Plug-In . SVG Version: 6.00 Build 0)  -->
<svg version="1.1" id="Layer_1" xmlns:sketch="http://www.bohemiancoding.com/sketch/ns"
	 xmlns="http://www.w3.org/2000/svg" xmlns:xlink="http://www.w3.org/1999/xlink" x="0px" y="0px" viewBox="0 0 312.5 413.6"
	 style="enable-background:new 0 0 312.5 413.6;" xml:space="preserve">
<title>kden-document-pdf</title>
<desc>Created with Sketch.</desc>
<path fill="#aa0000" d="M211.4,110.3h101.1L202.2,0v101.1C202.2,106.2,206.3,110.3,211.4,110.3z M86.9,324.1c7.5-1.3,15-8.8,22.5-23.9
	c-2.5,1.3-5,2.5-6.2,3.8C94.4,311.5,88.1,320.3,86.9,324.1z M149.4,201.9v-2.5c1.2-6.3,1.2-11.3,0-12.6c0,0,0,0,0-1.3l-1.2-1.3
	c0,0,0,1.3-1.2,1.3c-2.5,7.6-2.5,16.4,0,27.7C148.1,208.2,149.4,205.7,149.4,201.9z M166.9,271.2c-6.2-7.6-13.7-17.6-18.7-29
	c-2.5,8.8-7.5,18.9-12.5,30.2c-2.5,5-5,8.8-7.5,13.9h2.5c16.2-6.3,31.2-10.1,41.2-11.3C169.4,273.7,168.1,272.5,166.9,271.2z
	 M183.8,114.9V0h-167C7.5,0,0,7.5,0,16.9v379.9c0,9.3,7.6,16.9,16.9,16.9h278.7c9.3,0,16.9-7.6,16.9-16.9v-268H197.6
	C190,128.7,183.8,122.5,183.8,114.9z M233.1,276.2c1.2,2.5,1.2,5,1.2,7.6c-1.2,1.3-2.5,5-5,7.6c-2.5,1.3-6.2,2.5-11.2,2.5
	c-10,0-25-2.5-37.5-8.8c-21.2,2.5-37.5,5-50,10.1c-1.2,0-1.2,0-2.5,1.3c-15,26.5-27.5,39.1-37.5,39.1c-2.5,0-3.7,0-5-1.3l-6.2-3.8
	v-1.3c-1.2-2.5-1.2-3.8-1.2-6.3c1.2-6.3,8.7-17.6,23.7-26.5c2.5-1.3,6.2-3.8,11.2-6.3c3.7-6.3,7.5-13.9,12.5-22.7
	c6.2-12.6,10-25.2,13.7-36.5c-5-15.1-7.5-23.9-2.5-41.6c1.2-5,5-10.1,10-10.1h2.5c2.5,0,5,1.3,7.5,2.5c8.7,8.8,5,29,0,45.4v1.3
	c5,13.9,12.5,25.2,20,32.8c3.7,2.5,6.2,5,11.2,7.6c6.2,0,11.2-1.3,16.2-1.3C219.4,267.4,229.4,269.9,233.1,276.2z M225.6,283.8
	c0,0,0,0,0-1.3c0,0-1.2,0-1.2-1.3c-1.2-1.3-6.2-5-23.7-5h-2.5c0,0,0,0,0,1.3c8.7,3.8,17.5,6.3,23.7,6.3H225.6z"/>
</svg>
