<?xml version="1.0" encoding="utf-8"?>
<!-- Generator: Adobe Illustrator 21.0.2, SVG Export Plug-In . SVG Version: 6.00 Build 0)  -->
<svg version="1.1" id="Layer_1" xmlns="http://www.w3.org/2000/svg" xmlns:xlink="http://www.w3.org/1999/xlink" x="0px" y="0px"
	 viewBox="0 0 504 440.5" style="enable-background:new 0 0 504 440.5;" xml:space="preserve">
<path d="M497.2,230.7c-2.4-2-2.6-2.5-3.7-5.6c-1.3-3.9-3.3-9.8-9.5-16c-5.7-5.7-14.4-9.1-25.9-10c3.9-15.9-10-22.1-14.7-24.2
	l-0.1-0.1c-1.8-0.8-3.5-1.6-5.3-2.6c-5.1-3-6.4-4.8-8.8-11.7c-1.5-4.4-1.4-6.6-1.2-9.5c0.3-4.7,0.8-12.4-6.6-20.6
	c-2.1-2.3-4.3-3.5-9.5-6.2c-0.9-0.5-2.1-1.1-3.4-1.8c3-4.3,6.1-9.4,7.2-14.9c2.1-10.9-3.6-19.7-7.5-25.3c0.3-0.7,0.6-1.4,0.8-1.9
	l0.1-0.2c3.2-7.5,6.8-16,3.1-24.2c-3.1-7-9.6-10.5-16.5-14.3c-3.5-1.9-7.5-4.1-10.7-6.6c-8.2-6.4-16.3-9.5-25-9.5
	c-7.8,0-14.7,2.6-21.4,5.6c-0.1-0.5-0.1-1.1-0.3-1.6c-3.9-18.3-30.6-19.8-30.8-19.8c-16.8-0.9-26-4.1-32.8-6.5
	c-5-1.8-9.4-3.3-14.6-3.3c-0.1,0-0.9,0-1,0c-20.8,0.8-27.5,17.1-31.1,25.8c-0.7,1.8-1.8,4.3-2.6,5.8c-1.9-0.6-4.4-1.6-5.7-2.1
	c-2.1-0.8-4-1.6-5.8-2.2c-3.7-1.2-7.2-1.8-10.5-1.8c-14.6,0-21,10.6-24.5,16.3l-0.2,0.3c-0.5,0.9-1.1,1.7-1.6,2.5
	c-12.2,17-15.7,30.4-10.8,40.9c1.3,2.7,3,5,5.2,6.9c-6.9,0.5-13,3.1-18.6,8.1c-1.2,1.1-3.9,2.6-6.2,4c-6.1,3.6-13.1,7.6-17.2,14.8
	c-5,8.7-6.7,21.1-8.7,35.6c-0.2,1.2-0.2,1.5-1.9,2.8c-3.7,3.1-11.6,7-23.4,11.6C83.9,173.8,79,182,76.1,187
	c-0.3,0.5-0.7,1.2-1.1,1.8c-0.2,0-0.3,0-0.5,0c-2.1-0.1-5.2-0.7-8.6-1.2c-4.5-0.8-9.5-1.6-15-2c-1.8-0.2-3.9-0.3-6.1-0.3
	c-8,0-14.4,2.4-19,7.1c-4.8,4.9-7.2,11.7-7,20.2c0.3,18.3,12.7,49.8,15.1,55.2c3.3,7.4,4,12.7,3.8,14.2c-0.3,2.9-0.8,8.8-1.3,14.6
	c-8.9,2.2-21.1,6.2-29.3,22c-6,11.7-8,18.8-6.8,25.4c2,11.9,12.6,16.3,18.3,18.7c1.9,0.8,4.8,2,5.6,2.8c0.4,1.4,0.3,5.8-4.3,11.6
	c-5.9,7.3-7.5,16.8-4.5,25.9c2.8,8.5,8.9,15,16.1,17c2.4,0.7,4.7,1,7.1,1c7.2,0,12.5-3.1,16.3-5.5c2.4-1.4,4.6-2.8,7.9-3.7
	c16.3-4.7,21.9-17.2,24-25.8c1.1,0.1,2.2,0.1,3.4,0.1c1.4,0,2.7-0.1,3.9-0.2c7.8-0.8,13.9-2.5,18.8-3.9l0.6-0.2
	c0.9-0.3,1.8-0.5,2.6-0.7c0.5,0.1,1.3,0.4,1.9,0.7l0.6,0.2c4.1,1.5,10.4,3.7,19.6,3.7l2.8,0c9.5,0,18.3,1.9,28.7,6.2
	c10,4.2,18.5,4.7,25.6,4.7l6.9-0.1c0.4,0,0.8,0,1.2,0c0.9,0.8,2.2,2.3,3.1,3.2c4.9,5.3,12.4,13.4,25.1,15.8c1.6,0.3,3.2,0.4,4.9,0.4
	c9.7,0,19.9-4.8,29.5-9.6c0.5-0.3,1.1-0.6,1.6-0.9c0.8,0.2,2.2,0.9,3.3,1.4l0.2,0.1c5,2.2,12.5,5.6,23.4,5.6c4.2,0,8.7-0.5,13.3-1.5
	c1.5-0.3,2.5-0.4,3.1-0.4c0.4,0,0.7,0,0.7,0c0,0,0,0,0,0c0.5,0.3,2,2.2,2.7,3.1c2.6,3.3,6.2,7.9,12.3,10.9
	c5.3,2.7,10.3,3.9,15.7,3.9c2.1,0,4-0.2,5.8-0.4l0.4,0c0.5-0.1,0.9-0.1,1.2-0.1c0.2,0.1,0.7,0.4,1.3,0.9
	c7.4,5.7,16.3,11.7,26.9,11.7c7.4,0,14.1-3.3,18.4-9c3.3-4.5,6.6-12.3,3.1-24c-0.7-2.2-1.3-4.1-1.9-5.8l-0.1-0.4
	c-1.8-5.3-2-5.7-0.6-10.8c2.3-8.7,4.8-12.8,11-18.6c0.5-0.5,1.1-1,3.7-1c1.9,0,4.2,0.3,6.7,0.6c2.8,0.4,6.3,0.8,10,0.8
	c8.4,0,15.6-2.6,21.1-7.7c12.4-11.3,2.2-25.8-1.2-30.6c-2.5-3.5-3.3-6-2.1-11.6c4.5-19.8-2.7-31.7-8.5-38.9
	c5.5,2.6,10.6,3.8,15.7,3.8c8.7,0,16.6-3.6,24.2-11c2.1-2,5.2-4.4,8.2-6.7l0.1-0.1c9.4-7.2,18.2-14.1,18.3-24.7
	C504.1,239.4,501.6,234.3,497.2,230.7z M468.1,246.5l-0.1,0.1c-3.5,2.7-7.4,5.7-10.6,8.8c-1.8,1.7-3.4,2.8-4.3,2.8
	c-0.5,0-1.6-0.2-3.9-1.4c-6.2-3.1-12.3-4.7-18.3-4.7c-10.3,0-18.9,4.8-23.7,13.2c-4.7,8.2-4.6,18.7,0.2,26.7
	c1.7,2.8,3.7,5.1,5.6,7.2c4.5,5,6.9,7.8,4.9,16.8c-2.2,9.7-1.6,18.3,2,26.4c-2.5-0.3-5.3-0.6-8.2-0.6c-9.3,0-17.1,2.9-23.4,8.7
	c-10.2,9.4-15.6,18.5-19.3,32.4c-2.7,10-2.2,16.2-0.4,22.5c-6-4.5-12-6.6-18.4-6.6c-1.6,0-3,0.1-4.4,0.3l-0.9,0.1
	c-0.5,0.1-1,0.2-1.6,0.3c-0.3,0.1-0.6,0.1-0.7,0.1c0,0-0.8,0-2.8-1c-0.5-0.4-1.7-1.9-2.5-2.9c-3.9-5-11.2-14.2-26.2-14.2
	c-2.8,0-5.9,0.3-9.1,1c-2.6,0.6-5.1,0.9-7.3,0.9c-4.7,0-7.6-1.3-11.6-3.1c-4.1-1.8-9.2-4.1-15.8-4.1c-2.2,0-4.4,0.3-6.5,0.8
	c-2.4,0.6-4.4,1.6-7.9,3.3c-8.3,4.2-13.7,6.4-16.2,6.5c-3-0.7-5.3-3.1-8.8-6.9c-4.7-5.2-11.2-12.2-22-12.5c-1.2,0-2.4-0.1-3.6-0.1
	c0,0-6.9,0.1-6.9,0.1c-5.3,0-9.4-0.4-14.3-2.5c-13.9-5.8-26.5-8.5-39.9-8.5l-2.8,0c-4.2,0-6.8-0.9-9.9-2c-3.2-1.2-7.3-2.6-12.3-2.6
	c-2.2,0-4.3,0.3-6.5,0.8c-1.4,0.3-2.8,0.7-4.4,1.2c-4,1.1-8.6,2.4-14.1,3c-0.3,0-0.6,0-0.9,0c-1.2,0-2.7-0.2-4.3-0.4l-0.4-0.1
	c-2-0.3-4.3-0.6-6.6-0.6c-12,0-18.2,8.3-19.1,16.6c-1,10.2-3.1,10.8-4.9,11.3c-2.3,0.7-4.4,1.5-6.3,2.3c6.9-13.5,5.6-26.2,1.6-34
	c-4.8-9.4-13.2-13.4-19.2-15.9c0.5-1.2,1.2-2.6,2.1-4.4c2.8-5.4,5.4-6,12.5-7.6l0.1,0c2.9-0.7,6.2-1.4,9.6-2.7c5.3-2,9-6.9,9.4-12.4
	l0-0.2c0.7-9,1.6-20,2-23.7c1.2-10.6-3.4-22.8-6.2-29.2c-3.3-7.5-11.2-30-12.4-41.6c0.1,0,0.8,0.1,0.8,0.1c4.1,0.3,8.5,1.1,12.3,1.7
	c4.1,0.7,8,1.3,11.5,1.6c0.9,0.1,1.8,0.1,2.7,0.1c16.3,0,22.7-10.8,25.8-16c2.1-3.6,2.8-4.6,5.1-5.5c30.7-12,41.2-21.1,43.5-37.5
	c1.2-8.8,2.8-20.7,4.9-24.8c1.1-1.1,4.9-3.3,6.9-4.5c3.5-2,7.5-4.4,10.8-7.3c0.9-0.8,1.4-1,1.4-1c0.2,0,0.6,0,0.9,0.1
	c0.5,0.1,1,0.1,1.5,0.2c1.3,0.1,2.7,0.2,4.1,0.2c15.9,0,23.6-12,28.5-22.5c3.1-6.5,2.9-13.5-0.5-19.2c-2.7-4.6-7-7.8-12.9-9.6
	c1.1-2.2,2.8-5.1,5.5-8.8c1.1-1.5,2.1-3.1,3-4.6c0.5-0.8,0.9-1.4,1.2-1.9c0,0,0,0,0,0c1,0.3,2.2,0.8,3.5,1.3l0.6,0.2
	c5.1,2,11.5,4.6,18.2,4.6c3.9,0,7.5-0.8,10.6-2.5c10.1-5.2,14.1-14.7,16.9-21.7c3-7.2,3.6-7.7,5.2-7.8c0.9,0.2,3.3,1,5.1,1.6
	c7.9,2.8,19.9,7,40.9,8c0.4,0,0.8,0.1,1.2,0.1c-1.7,6.5-2.3,15.7,5.9,22.2c3.8,3,8.5,4.7,13.6,4.7c6.8,0,12.6-2.8,17.8-5.3l1.7-0.8
	c5.7-2.7,10.7-5.1,13.8-5.1c0.7,0,2.8,0,7.1,3.3c5.1,3.9,10.5,7,14.5,9.2c0.3,0.2,0.7,0.4,1.1,0.6c-0.2,0.4-0.4,0.8-0.5,1.2
	c-2.9,6.8-5.7,13.2-3.5,20.2c1.1,3.5,3.1,6.4,5.1,9.2c0.7,1,2.2,3.1,2.9,4.4c-0.9,1.6-2.8,4.2-3.7,5.5c-4.6,6.5-13.1,18.6-3.7,29.4
	c3.7,4.2,10.1,7.8,18.9,12.4l0.7,0.4c-0.2,4.1-0.4,10.6,2.8,19.7c4,11.5,8.7,19.6,21.3,27.1c1.6,1,3.1,1.8,4.5,2.4
	c-1.8,6.3-2.9,14.2,2,21c2,2.8,6.8,7.5,15.7,7.5c0.5,0,0.9,0,1.5,0c1.7-0.1,3.2-0.2,4.6-0.2c8.4,0,11.6,1.6,12.1,1.9
	c1.4,1.4,1.6,2.2,2.5,4.7c0.9,2.6,2.1,6.1,4.6,10C469.8,245.2,468.9,245.9,468.1,246.5z"/>
</svg>
