<?xml version="1.0" encoding="utf-8"?>
<!-- Generator: Adobe Illustrator 21.0.2, SVG Export Plug-In . SVG Version: 6.00 Build 0)  -->
<svg version="1.1"
	 id="Layer_1" xmlns:cc="http://creativecommons.org/ns#" xmlns:dc="http://purl.org/dc/elements/1.1/" xmlns:inkscape="http://www.inkscape.org/namespaces/inkscape" xmlns:rdf="http://www.w3.org/1999/02/22-rdf-syntax-ns#" xmlns:sodipodi="http://sodipodi.sourceforge.net/DTD/sodipodi-0.dtd" xmlns:svg="http://www.w3.org/2000/svg"
	 xmlns="http://www.w3.org/2000/svg" xmlns:xlink="http://www.w3.org/1999/xlink" x="0px" y="0px" viewBox="0 0 802.5 818.8"
	 style="enable-background:new 0 0 802.5 818.8;" xml:space="preserve">
<path fill="#000" d="M401.3,0H288.8v163.8h112.5V0z M639.4,678.1l0.7-74.4H163.8v75l237.8-0.3L639.4,678.1z M802.5,194.4l-97.2-97.2L608.1,0
	h-99.3l-0.6,224.4H116.2L115.6,0.6L57.8,0.3L0,0v409.4l0,0v409.4l401.3-0.3l401.3-0.3L802.5,194.4z M689.4,576L689.4,576l0,151.6
	l-287.3,0.3c-158,0.2-287.5,0.1-287.8-0.2c-0.3-0.3-0.5-68.8-0.5-152.2V423.8l575.6,0.6V576z M639.4,555.6l0.7-74.4H163.8v75
	l237.8-0.3L639.4,555.6z"/>
</svg>
