<?xml version="1.0" encoding="utf-8"?>
<!-- Generator: Adobe Illustrator 21.0.2, SVG Export Plug-In . SVG Version: 6.00 Build 0)  -->
<svg version="1.1" id="Layer_1" xmlns="http://www.w3.org/2000/svg" xmlns:xlink="http://www.w3.org/1999/xlink" x="0px" y="0px"
	 viewBox="0 0 60.8 60.8" style="enable-background:new 0 0 60.8 60.8;" xml:space="preserve">
<path d="M51.9,8.9C40-3,20.8-3,8.9,8.9S-3,40,8.9,51.9c10.4,10.4,26.4,11.7,38.2,3.9l13.7,5l-5-13.7C63.6,35.3,62.3,19.3,51.9,8.9z
	 M30.4,47.7c-2.2,0-3.9-1.8-3.9-3.9c0-2.2,1.8-3.9,3.9-3.9c2.2,0,3.9,1.8,3.9,3.9C34.3,46,32.6,47.7,30.4,47.7z M34.3,29.7
	c0,2.2-1.8,3.9-3.9,3.9c-2.2,0-3.9-1.8-3.9-3.9V17c0-2.2,1.8-3.9,3.9-3.9c2.2,0,3.9,1.8,3.9,3.9V29.7z"/>
</svg>
