<?xml version="1.0" encoding="utf-8"?>
<!-- Generator: Adobe Illustrator 21.0.2, SVG Export Plug-In . SVG Version: 6.00 Build 0)  -->
<svg version="1.1" id="Layer_1" xmlns:sketch="http://www.bohemiancoding.com/sketch/ns"
	 xmlns="http://www.w3.org/2000/svg" xmlns:xlink="http://www.w3.org/1999/xlink" x="0px" y="0px" viewBox="0 0 312.5 413.7"
	 style="enable-background:new 0 0 312.5 413.7;" xml:space="preserve">
<title>kden-document-pdf</title>
<desc>Created with Sketch.</desc>
<path fill="#2b5797" d="M211.4,110.3h101.1L202.2,0v101.1C202.2,106.2,206.3,110.3,211.4,110.3z M183.8,114.9V0h-167C7.5,0,0,7.5,0,16.9v379.9
	c0,9.3,7.6,16.9,16.9,16.9h278.7c9.3,0,16.9-7.6,16.9-16.9v-268H197.6C190,128.7,183.8,122.5,183.8,114.9z M217.1,188.6H250
	l-37,143.2H178l-12.1-61.6c-2.8-14.4-5.1-27.8-6.8-44.2h-0.4c-2.5,16.1-4.9,29.7-8.3,44.2l-13.6,61.6h-35.5l-34-143.2h34.6
	l10.8,59.1c3.2,17,6.2,25.5,8.5,39.9h0.4c2.3-15.5,5.7-22.7,9.3-40.4l12.1-58.6h34.4L189,249c3.2,16.8,5.5,22.1,7.6,38h0.4
	c2.1-15.9,5.3-22.7,8.3-39.7L217.1,188.6z"/>
</svg>
