<?xml version="1.0" encoding="utf-8"?>
<!-- Generator: Adobe Illustrator 21.0.2, SVG Export Plug-In . SVG Version: 6.00 Build 0)  -->
<svg version="1.1" id="Layer_1" xmlns="http://www.w3.org/2000/svg" xmlns:xlink="http://www.w3.org/1999/xlink" x="0px" y="0px"
	 viewBox="0 0 73.506 73.521" style="enable-background:new 0 0 73.506 73.521;" xml:space="preserve">
<path fill="#ffffff" d="M35.786,15.562h-8v12.25h-12.25v8h12.25v12.25h8v-12.25h12.25v-8h-12.25V15.562z M56.876,51.242
	c10.753-13.865,8.23-33.822-5.635-44.575C37.376-4.086,17.42-1.563,6.667,12.302c-10.753,13.865-8.23,33.822,5.635,44.575
	c5.569,4.319,12.417,6.664,19.465,6.665c7.038,0.008,13.878-2.328,19.44-6.64l16.64,16.62l5.66-5.66L56.876,51.242z M48.486,48.687
	c-9.299,9.251-24.337,9.212-33.587-0.088c-4.439-4.462-6.925-10.504-6.912-16.797c0.004-6.306,2.523-12.349,7-16.79
	c9.299-9.251,24.337-9.211,33.587,0.088C57.825,24.398,57.785,39.436,48.486,48.687z"/>
</svg>
