<svg xmlns="http://www.w3.org/2000/svg" version="1.1" width="24" height="24" x="0px" y="0px" viewBox="0 0 151 162.6" style="enable-background:new 0 0 151 162.6;"> <path d="M141.8,37.4c6.1-7.2,9.2-13.3,9.2-23.1C151,6.4,117.2,0,75.5,0C33.8,0,0.2,6.4,0,14.3c-0.2,6.8,7.2,46.2,35.9,59  C64.7,86,93.5,98.8,93.5,111.5c0,12.8-57.5,19.2-21.6,51.1c0,0-1.9-19,11.7-23.1c13.6-4.2,51.2-8.8,55-31.1  c-13.7-0.5-27.7-2.6-34.1-6c12.6,1.3,24.4,1.1,34.4,0.3c-0.3-5.4-1.6-9.5-3.4-12.8c-19.6-0.1-40.6-2.2-49.8-5.9  c16.7,1.2,32.4,1,45.7,0.1c-4.4-5-8.9-8.1-7.7-13.4c-23.1,1.6-56.7-0.3-69.2-5.3c31.3,2.3,59-0.6,73.7-2.8c2.2-3.2,4.4-6.9,6.5-10.8  C103.1,55.3,49.1,50.8,30.3,41C81.6,47.1,126.1,40.3,141.8,37.4z M36.4,15.8C36.4,15.8,36.4,15.7,36.4,15.8c0-3.5,19.1-6.4,42.7-6.4  c23.6,0,42.7,2.8,42.7,6.3c0,0,0,0,0,0c-0.1,3.5-19.2,6.3-42.7,6.3C55.6,22.1,36.6,19.3,36.4,15.8z"></path> </svg>